<svg id="Layer_1" data-name="Layer 1" xmlns="http://www.w3.org/2000/svg" xmlns:xlink="http://www.w3.org/1999/xlink" viewBox="0 0 316.5 90.87"><defs><style>.cls-1{fill:none;}.cls-2{clip-path:url(#clip-path);}.cls-3{fill:#a3d8e7;}.cls-4{fill:#28b8ce;}.cls-5{fill:#3f88c0;}.cls-6{fill:#006b84;}.cls-7{fill:#1d1d1b;}</style><clipPath id="clip-path" transform="translate(0 0)"><rect class="cls-1" width="316.6" height="90.87"/></clipPath></defs><title>EDT_Logo</title><g class="cls-2"><path class="cls-3" d="M.74,26.17c-.25-.55-.46-.51-.46.1v6.57A6.1,6.1,0,0,0,.74,35L4.8,43.76a2.66,2.66,0,0,1,0,2l-4,8.7a5.94,5.94,0,0,0-.47,2.11v6.74c0,.61.21.66.46.1L8.81,45.74a2.79,2.79,0,0,0,0-2Z" transform="translate(0 0)"/><path class="cls-4" d="M.46,9C.21,8.47,0,8.51,0,9.12v6.61a6.1,6.1,0,0,0,.46,2.11l12,25.94a2.79,2.79,0,0,1,0,2L.73,72.36a6.19,6.19,0,0,0-.45,2.12v6.76c0,.61.2.65.45.1L16.48,45.76a2.81,2.81,0,0,0,0-2Z" transform="translate(0 0)"/><path class="cls-4" d="M24.53,45.78a2.79,2.79,0,0,0,0-2L6.33,4.65a.65.65,0,0,1,.64-1H62.51a1.11,1.11,0,0,0,1.1-1.11V1.11A1.1,1.1,0,0,0,62.51,0H1.1A.65.65,0,0,0,.47,1l20,42.81a2.74,2.74,0,0,1,0,2L.74,89.6a.66.66,0,0,0,.65,1H62.51a1.11,1.11,0,0,0,1.11-1.11V88.07A1.11,1.11,0,0,0,62.51,87H7.1a.66.66,0,0,1-.65-1Z" transform="translate(0 0)"/><path class="cls-5" d="M32.18,45.79a2.74,2.74,0,0,0,0-2L17.53,12.62a.65.65,0,0,1,.64-1H62.51a1.1,1.1,0,0,0,1.1-1.1V9.09A1.11,1.11,0,0,0,62.51,8H12.25a.65.65,0,0,0-.63,1l16.5,34.86a2.71,2.71,0,0,1,0,2L11.9,81.57a.65.65,0,0,0,.64,1h50a1.11,1.11,0,0,0,1.11-1.1V80a1.11,1.11,0,0,0-1.11-1.11H18.28a.66.66,0,0,1-.65-1Z" transform="translate(0 0)"/><path class="cls-5" d="M39.84,45.8a2.71,2.71,0,0,0,0-2L28.74,20.6a.64.64,0,0,1,.62-1H62.51a1.11,1.11,0,0,0,1.11-1.11V17.06A1.11,1.11,0,0,0,62.51,16H23.4a.64.64,0,0,0-.63,1l13,26.91a2.66,2.66,0,0,1,0,2L23.06,73.54a.65.65,0,0,0,.64,1H62.51a1.11,1.11,0,0,0,1.11-1.1V72a1.11,1.11,0,0,0-1.11-1.1h-33a.66.66,0,0,1-.65-1Z" transform="translate(0 0)"/><path class="cls-6" d="M40.65,62.87a.66.66,0,0,1-.64-1l7.48-16a2.64,2.64,0,0,0,0-2L39.94,28.57a.63.63,0,0,1,.62-1H62.51a1.11,1.11,0,0,0,1.11-1.11V25a1.11,1.11,0,0,0-1.11-1.11h-28a.63.63,0,0,0-.61,1l9.46,19a2.57,2.57,0,0,1,0,2L33.92,65.51a.64.64,0,0,0,.62,1h28a1.11,1.11,0,0,0,1.11-1.11V64a1.11,1.11,0,0,0-1.11-1.1Z" transform="translate(0 0)"/><path class="cls-7" d="M99.73,0c1.4,0,1.7.3,1.7,1.51V6c0,.42-.15.65-1.24.65S98.9,6.39,98.9,6V2.12H84.38V12.29H95v-2c0-.42.15-.65,1.24-.65s1.25.23,1.25.65v6.31c0,.42-.15.65-1.25.65S95,17,95,16.56V14.33H84.38V25.11H99.17V21.25c0-.41.18-.64,1.28-.64s1.25.23,1.25.64v4.46c0,1.21-.34,1.52-1.74,1.52H79.77c-.5,0-.65-.15-.65-1.06s.15-1.06.65-1.06h1.92v-23H79.77c-.5,0-.65-.15-.65-1.06S79.27,0,79.73,0Z" transform="translate(0 0)"/><path class="cls-7" d="M121,0c1,0,1.48.3,1.48,1.47V24.2c0,.76.3,1.06,1.32,1.06h.46c.53,0,.64.19.64.95s-.11,1-.64,1H123.1c-1.89,0-2.83-.72-3.1-2.2h-.42c-1,1.52-3.13,2.65-6.54,2.65-5.37,0-8.77-3.59-8.77-9v-.9c0-5.37,3.06-9.34,9.23-9.34,3,0,5,1,6.46,3.06h.42A22.64,22.64,0,0,1,120,7V2.68c0-.56-.19-.64-.64-.64h-1.21c-.49,0-.61-.3-.61-.87,0-.87.31-1.17,1.18-1.17ZM106.92,18.34c0,4.24,2,7.34,6.31,7.34s6.85-2.12,6.85-6.39V17.58c0-4.87-2.46-7.14-6.58-7.14s-6.58,2.76-6.58,7.56Z" transform="translate(0 0)"/><path class="cls-7" d="M129.15,8.89c1,0,1.44.3,1.44,1.43v8.74c0,4.84,1.4,6.58,5.56,6.58,4.69,0,6.61-2.46,6.61-6.66V11.57c0-.49-.15-.64-.64-.64h-1.21c-.45,0-.6-.3-.6-.87,0-.91.34-1.17,1.17-1.17h2.34c1,0,1.44.3,1.44,1.43V24.2c0,.8.23,1.06,1.29,1.06H147c.53,0,.64.11.64.95s-.11,1-.64,1h-1c-1.89,0-3-.72-3.32-2.5h-.42c-1.1,1.82-2.95,2.95-6.54,2.95-5.79,0-7.68-3-7.68-7.79V11.57c0-.49-.15-.64-.64-.64h-1.21c-.46,0-.61-.3-.61-.87,0-.91.34-1.17,1.18-1.17Z" transform="translate(0 0)"/><path class="cls-7" d="M150.25,17.7c0-5.75,3.37-9.31,10.32-9.31a16.28,16.28,0,0,1,5,.69,1.85,1.85,0,0,1,1.52,2v2c0,.42-.12.64-1.21.64s-1.21-.18-1.21-.64V10.85a17.45,17.45,0,0,0-4.35-.49c-5.3,0-7.45,2.72-7.45,7.45V18c0,5.07,2.23,7.6,7.67,7.6a24.73,24.73,0,0,0,5.22-.53c.61-.11.8.08,1,.83s.07.87-.46,1.06a22.77,22.77,0,0,1-6.08.72c-6.81,0-9.95-3.1-9.95-9.57Z" transform="translate(0 0)"/><path class="cls-7" d="M169.39,22c0-3.4,2.64-5.82,8.39-5.82,2.65,0,4.46.64,5.63,1.81h.42V16.11c0-4-1.74-5.52-6-5.52a18,18,0,0,0-6.05,1.06c-.46.15-.72,0-.95-.8s-.19-1.06.38-1.25a21.89,21.89,0,0,1,7-1.2c5.59,0,8.05,2.26,8.05,7.33V24.2c0,.8.34,1.06,1.29,1.06H188c.53,0,.64.19.64.95s-.11,1-.64,1h-1c-1.93,0-2.69-.53-3.11-2h-.41c-1.14,1.55-3.14,2.46-6.43,2.46-5,0-7.71-2.31-7.71-5.44ZM172,22c0,1.93,1.78,3.63,5.86,3.63,3.9,0,6-1.82,6-3.74,0-2.08-2.08-3.75-6-3.75-4.08,0-5.86,1.67-5.86,3.71Z" transform="translate(0 0)"/><path class="cls-7" d="M193,8.89v-5c0-.65.27-.8,1.21-.8s1.29.15,1.29.8v5h6.12c.57,0,.68.15.68,1s-.11.94-.68.94h-6.12V22.2c0,2.38.79,3.36,3.4,3.36a11.85,11.85,0,0,0,3.4-.53c.46-.11.65,0,.84.8s.07.94-.35,1.1a13.23,13.23,0,0,1-4.5.75c-4.15,0-5.29-2-5.29-5.22V10.85h-3.4c-.57,0-.68-.11-.68-.94s.11-1,.68-1Z" transform="translate(0 0)"/><path class="cls-7" d="M208.56,8.89c1,0,1.47.3,1.47,1.47V25.19h2.46c.57,0,.65.18.65,1s-.08,1-.65,1h-6.88c-.57,0-.64-.19-.64-1s.07-1,.64-1h1.93V11.57c0-.49-.15-.64-.64-.64h-1.33c-.41,0-.6-.23-.6-.87,0-.87.3-1.17,1.17-1.17Zm.15-8.21c.95,0,1.59.38,1.59,1.78s-.3,1.59-1.17,1.59H208c-.87,0-1.21-.27-1.21-1.59s.68-1.78,1.63-1.78Z" transform="translate(0 0)"/><path class="cls-7" d="M215.18,17.85c0-6.13,3.14-9.45,9.38-9.45s9.37,3.51,9.37,9.45v.42c0,6.12-3.51,9.41-9.37,9.41-6.24,0-9.38-3.59-9.38-9.41Zm2.64.34c0,4.92,1.89,7.6,6.74,7.6s6.73-2.68,6.73-7.6v-.27c0-4.91-1.89-7.56-6.73-7.56s-6.74,2.65-6.74,7.56Z" transform="translate(0 0)"/><path class="cls-7" d="M239.72,8.89c1.06,0,1.47.37,1.59,1.47l.11,1.17h.42c1.24-2.15,3.4-3.14,7.26-3.14,5.1,0,7.33,2.88,7.33,8.36v8.44h2.31c.57,0,.64.18.64,1s-.07,1-.64,1h-7.07c-.57,0-.64-.19-.64-1s.07-1,.64-1h2.27v-8.1c0-4.95-1.74-6.73-5.64-6.73-4.2,0-6.69,2.19-6.69,6.81v8h2.65c.56,0,.64.18.64,1s-.08,1-.64,1h-7.07c-.57,0-.65-.19-.65-1s.08-1,.65-1h1.92V11.57c0-.49-.11-.64-.6-.64h-1.4c-.42,0-.61-.23-.61-.87,0-.87.31-1.17,1.18-1.17Z" transform="translate(0 0)"/><path class="cls-7" d="M89,31.88c9.61,0,14.3,4.43,14.3,13.16v.87c0,7.68-4.13,13.2-13.88,13.2H79.76c-.49,0-.64-.15-.64-1.06s.15-1.06.64-1.06h1.93V34H79.76c-.49,0-.64-.15-.64-1.06s.15-1.06.64-1.06ZM84.38,57h5.1c7.45,0,11-3.55,11-11.27v-.45c0-7.83-3.78-11.27-11.76-11.27H84.38Z" transform="translate(0 0)"/><path class="cls-7" d="M106.08,49.62c0-6,3.63-9.34,9.42-9.34,5.41,0,8.17,3,8.17,8.09v.49c0,1.74-.08,1.85-2,1.85H108.73c.19,4.84,2.23,6.77,7.49,6.77a20.78,20.78,0,0,0,5.67-.87c.53-.15.72-.11,1,.68s.22,1-.23,1.18A20.1,20.1,0,0,1,116,59.56c-7.49,0-9.91-3.7-9.91-9.19Zm15.24-.91c0-4.54-2.08-6.47-6-6.47-4.35,0-6.46,2.42-6.46,6.47Z" transform="translate(0 0)"/><path class="cls-7" d="M131.38,40.77c.57,0,.64.19.64,1s-.07,1-.64,1h-2.23l4.84,11a14.23,14.23,0,0,1,1.1,3.74h.45a13.28,13.28,0,0,1,1-3.74l4.88-11H139c-.57,0-.64-.19-.64-1s.07-1,.64-1h6.35c.57,0,.65.19.65,1s-.08,1-.65,1H143.9l-7.07,15.58c-.31.64-.53,1-1.25,1h-.49c-1,0-1.25-.19-1.55-.91l-7.19-15.62h-1.43c-.57,0-.65-.19-.65-1s.08-1,.65-1Z" transform="translate(0 0)"/><path class="cls-7" d="M146.85,49.62c0-6,3.63-9.34,9.42-9.34,5.4,0,8.16,3,8.16,8.09v.49c0,1.74-.07,1.85-2,1.85H149.5c.18,4.84,2.23,6.77,7.48,6.77a20.86,20.86,0,0,0,5.68-.87c.52-.15.71-.11.94.68s.23,1-.23,1.18a20,20,0,0,1-6.61,1.09c-7.49,0-9.91-3.7-9.91-9.19Zm15.24-.91c0-4.54-2.08-6.47-6.05-6.47-4.35,0-6.47,2.42-6.47,6.47Z" transform="translate(0 0)"/><path class="cls-7" d="M170.82,31.88c1,0,1.48.3,1.48,1.48V57.07h2.46c.56,0,.64.19.64,1s-.08,1-.64,1h-6.89c-.56,0-.64-.19-.64-1s.08-1,.64-1h1.93V34.57c0-.5-.15-.65-.64-.65h-1.33c-.41,0-.6-.22-.6-.87,0-.87.3-1.17,1.17-1.17Z" transform="translate(0 0)"/><path class="cls-7" d="M176.91,49.73c0-6.13,3.14-9.45,9.38-9.45s9.38,3.51,9.38,9.45v.42c0,6.12-3.52,9.41-9.38,9.41-6.24,0-9.38-3.59-9.38-9.41Zm2.65.34c0,4.92,1.89,7.6,6.73,7.6S193,55,193,50.07v-.26c0-4.92-1.89-7.57-6.73-7.57s-6.73,2.65-6.73,7.57Z" transform="translate(0 0)"/><path class="cls-7" d="M200.7,40.77c1.17,0,1.47.41,1.58,1.47l.12,1.18h.41c1.21-1.9,3.52-3.14,6.73-3.14,5.37,0,8.7,3.82,8.7,9.11v.68c0,5.41-3,9.49-9.19,9.49-3.17,0-5.1-1-6.46-2.76h-.42a31.79,31.79,0,0,1,.42,5.45v3.29h2.87c.57,0,.64.19.64,1s-.07,1-.64,1h-7.34c-.56,0-.64-.19-.64-1s.08-1,.64-1h2V43.45c0-.45-.11-.64-.64-.64h-1.36c-.46,0-.61-.3-.61-.87,0-.87.3-1.17,1.17-1.17Zm1.77,9.94c0,4.69,2.42,6.81,6.39,6.81,4.54,0,6.73-2.68,6.73-7.49v-.34c0-4.76-2.45-7.41-6.42-7.41-4.2,0-6.7,2.87-6.7,7.22Z" transform="translate(0 0)"/><path class="cls-7" d="M224,40.77c1.17,0,1.47.45,1.59,1.47l.11,1.18h.42c1.17-2.16,3.25-3.14,6.8-3.14s5.45,1.17,6.51,3.44h.45c1.1-2.2,3.59-3.44,7.38-3.44,5.18,0,7,2.76,7,7.75v9h2.31c.57,0,.64.19.64,1s-.07,1-.64,1h-7c-.57,0-.64-.19-.64-1s.07-1,.64-1h2.2V48.6c0-5-1.33-6.36-5.22-6.36-4.09,0-6.51,2.35-6.51,7v7.87h2.35c.56,0,.64.19.64,1s-.08,1-.64,1H235.3c-.57,0-.65-.19-.65-1s.08-1,.65-1h2.26V48.6c0-5-1.36-6.36-5.25-6.36-4.05,0-6.43,2.12-6.43,6.58v8.25h2.65c.56,0,.64.19.64,1s-.08,1-.64,1h-7.07c-.57,0-.65-.19-.65-1s.08-1,.65-1h1.92V43.45c0-.53-.15-.64-.6-.64h-1.36c-.49,0-.61-.3-.61-.87,0-.91.34-1.17,1.17-1.17Z" transform="translate(0 0)"/><path class="cls-7" d="M258.85,49.62c0-6,3.63-9.34,9.42-9.34,5.41,0,8.17,3,8.17,8.09v.49c0,1.74-.08,1.85-2,1.85H261.5c.19,4.84,2.23,6.77,7.49,6.77a20.78,20.78,0,0,0,5.67-.87c.53-.15.72-.11.95.68s.22,1-.23,1.18a20.1,20.1,0,0,1-6.62,1.09c-7.49,0-9.91-3.7-9.91-9.19Zm15.24-.91c0-4.54-2.08-6.47-6-6.47-4.35,0-6.46,2.42-6.46,6.47Z" transform="translate(0 0)"/><path class="cls-7" d="M282.45,40.77c1.06,0,1.47.38,1.59,1.47l.11,1.18h.42c1.25-2.16,3.4-3.14,7.26-3.14,5.1,0,7.33,2.87,7.33,8.35v8.44h2.31c.57,0,.64.19.64,1s-.07,1-.64,1H294.4c-.57,0-.64-.19-.64-1s.07-1,.64-1h2.27V49c0-4.95-1.74-6.73-5.64-6.73-4.19,0-6.69,2.2-6.69,6.81v8H287c.56,0,.64.19.64,1s-.08,1-.64,1h-7.07c-.57,0-.65-.19-.65-1s.08-1,.65-1h1.92V43.45c0-.49-.11-.64-.6-.64h-1.4c-.42,0-.6-.23-.6-.87,0-.87.3-1.17,1.17-1.17Z" transform="translate(0 0)"/><path class="cls-7" d="M306.27,40.77v-5c0-.64.27-.79,1.21-.79s1.29.15,1.29.79v5h6.12c.57,0,.69.15.69,1s-.12.94-.69.94h-6.12V54.08c0,2.38.79,3.37,3.4,3.37a12.33,12.33,0,0,0,3.41-.53c.45-.12.64,0,.83.79s.07.95-.34,1.1a13.32,13.32,0,0,1-4.5.75c-4.16,0-5.3-2-5.3-5.22V42.73h-3.4c-.57,0-.68-.11-.68-.94s.11-1,.68-1Z" transform="translate(0 0)"/><path class="cls-7" d="M102.86,63.19c1.4,0,1.7.3,1.7,1.51v4.5c0,.42-.15.65-1.25.65S102,69.62,102,69.2V65.31H93.52v23H97.6c.49,0,.64.15.64,1.06s-.15,1.06-.64,1.06H86.79c-.5,0-.65-.15-.65-1.06s.15-1.06.65-1.06h4v-23H82.29V69.2c0,.42-.16.65-1.25.65s-1.29-.23-1.29-.65V64.7c0-1.21.34-1.51,1.74-1.51Z" transform="translate(0 0)"/><path class="cls-7" d="M109.63,72.08c1.05,0,1.51.38,1.58,1.47l.12,1.71h.41c.91-2.46,3.1-3.67,6.32-3.67a7.43,7.43,0,0,1,2.46.38c.41.15.45.41.19,1.24s-.5,1-1,.87a8.55,8.55,0,0,0-2-.26c-4.09,0-6.2,2.3-6.2,7.9v6.66h2.57c.57,0,.64.19.64,1s-.07,1-.64,1h-7c-.57,0-.64-.19-.64-1s.07-1,.64-1H109V74.76c0-.53-.15-.64-.6-.64h-1.37c-.45,0-.6-.3-.6-.87,0-.91.34-1.17,1.17-1.17Z" transform="translate(0 0)"/><path class="cls-7" d="M125.81,72.08c1,0,1.44.3,1.44,1.44v8.73c0,4.84,1.4,6.58,5.56,6.58,4.68,0,6.61-2.46,6.61-6.65V74.76c0-.49-.15-.64-.64-.64h-1.21c-.45,0-.6-.3-.6-.87,0-.91.34-1.17,1.17-1.17h2.34c1,0,1.44.3,1.44,1.44V87.39c0,.8.23,1.06,1.28,1.06h.5c.53,0,.64.12.64,1s-.11,1-.64,1h-1c-1.89,0-3-.72-3.32-2.5H139c-1.1,1.82-2.95,3-6.54,3-5.79,0-7.68-3-7.68-7.79V74.76c0-.49-.15-.64-.64-.64H122.9c-.46,0-.61-.3-.61-.87,0-.91.34-1.17,1.18-1.17Z" transform="translate(0 0)"/><path class="cls-7" d="M147.21,76.73c0-3.1,2-5.14,7.94-5.14a23.09,23.09,0,0,1,5.41.87c1.36.45,1.78.94,1.78,2.08V76c0,.42-.11.65-1.21.65s-1.21-.19-1.21-.65V74.31a21.33,21.33,0,0,0-5.14-.79c-3.79,0-5,.94-5,3.17,0,1.67.72,2.27,5.68,3.06l.94.16c5.37.87,6.77,2.57,6.77,5.71v.15c0,3.25-1.85,5.1-8.92,5.1a21.64,21.64,0,0,1-5.64-.68c-1.44-.34-1.93-.91-1.93-2.3V86.33c0-.45.19-.64,1.25-.64s1.29.23,1.29.64v1.74a18.78,18.78,0,0,0,5.78.84c4.46,0,5.6-1,5.6-3.14s-1.17-3.07-5.9-3.71l-1.1-.15c-4.69-.64-6.39-2.12-6.39-5Z" transform="translate(0 0)"/><path class="cls-7" d="M168.16,72.08v-5c0-.64.27-.79,1.21-.79s1.29.15,1.29.79v5h6.12c.57,0,.68.15.68,1s-.11.94-.68.94h-6.12V85.39c0,2.38.79,3.37,3.4,3.37a12.22,12.22,0,0,0,3.4-.53c.46-.12.65,0,.84.79s.07,1-.34,1.1a13.32,13.32,0,0,1-4.5.75c-4.16,0-5.3-2-5.3-5.22V74h-3.4c-.57,0-.68-.11-.68-.94s.11-1,.68-1Z" transform="translate(0 0)"/></g></svg>